<mxfile host="app.diagrams.net" agent="Mozilla/5.0 (X11; Linux x86_64; rv:130.0) Gecko/20100101 Firefox/130.0" version="24.7.17">
  <diagram name="Page-1" id="5f0bae14-7c28-e335-631c-24af17079c00">
    <mxGraphModel dx="2604" dy="1404" grid="1" gridSize="10" guides="1" tooltips="1" connect="1" arrows="1" fold="1" page="1" pageScale="1" pageWidth="1100" pageHeight="850" background="none" math="0" shadow="0">
      <root>
        <mxCell id="0" />
        <mxCell id="1" parent="0" />
        <mxCell id="VfzKHfhqKV_RDStS5IAa-1" value="&lt;div&gt;Load Blancer&lt;/div&gt;" style="rounded=1;whiteSpace=wrap;html=1;" vertex="1" parent="1">
          <mxGeometry x="455" y="450" width="160" height="80" as="geometry" />
        </mxCell>
        <mxCell id="VfzKHfhqKV_RDStS5IAa-2" value="&lt;div&gt;INSTANCE 1&lt;/div&gt;" style="ellipse;whiteSpace=wrap;html=1;aspect=fixed;" vertex="1" parent="1">
          <mxGeometry x="350" y="648" width="105" height="105" as="geometry" />
        </mxCell>
        <mxCell id="VfzKHfhqKV_RDStS5IAa-4" value="&lt;div&gt;INSTANCE 1&lt;/div&gt;" style="ellipse;whiteSpace=wrap;html=1;aspect=fixed;" vertex="1" parent="1">
          <mxGeometry x="615" y="648" width="105" height="105" as="geometry" />
        </mxCell>
        <mxCell id="VfzKHfhqKV_RDStS5IAa-5" value="&lt;div&gt;INSTANCE 1&lt;/div&gt;" style="ellipse;whiteSpace=wrap;html=1;aspect=fixed;" vertex="1" parent="1">
          <mxGeometry x="482.5" y="648" width="105" height="105" as="geometry" />
        </mxCell>
        <mxCell id="VfzKHfhqKV_RDStS5IAa-6" value="" style="endArrow=classic;html=1;rounded=0;exitX=0.5;exitY=1;exitDx=0;exitDy=0;entryX=0.5;entryY=0;entryDx=0;entryDy=0;startArrow=classic;startFill=1;" edge="1" parent="1" source="VfzKHfhqKV_RDStS5IAa-1" target="VfzKHfhqKV_RDStS5IAa-2">
          <mxGeometry width="50" height="50" relative="1" as="geometry">
            <mxPoint x="540" y="518" as="sourcePoint" />
            <mxPoint x="590" y="468" as="targetPoint" />
          </mxGeometry>
        </mxCell>
        <mxCell id="VfzKHfhqKV_RDStS5IAa-7" value="" style="endArrow=classic;html=1;rounded=0;exitX=0.5;exitY=1;exitDx=0;exitDy=0;entryX=0.5;entryY=0;entryDx=0;entryDy=0;startArrow=classic;startFill=1;" edge="1" parent="1" source="VfzKHfhqKV_RDStS5IAa-1" target="VfzKHfhqKV_RDStS5IAa-5">
          <mxGeometry width="50" height="50" relative="1" as="geometry">
            <mxPoint x="545" y="498" as="sourcePoint" />
            <mxPoint x="413" y="658" as="targetPoint" />
          </mxGeometry>
        </mxCell>
        <mxCell id="VfzKHfhqKV_RDStS5IAa-8" value="" style="endArrow=classic;html=1;rounded=0;entryX=0.5;entryY=0;entryDx=0;entryDy=0;exitX=0.5;exitY=1;exitDx=0;exitDy=0;startArrow=classic;startFill=1;" edge="1" parent="1" source="VfzKHfhqKV_RDStS5IAa-1" target="VfzKHfhqKV_RDStS5IAa-4">
          <mxGeometry width="50" height="50" relative="1" as="geometry">
            <mxPoint x="560" y="518" as="sourcePoint" />
            <mxPoint x="545" y="658" as="targetPoint" />
          </mxGeometry>
        </mxCell>
        <mxCell id="VfzKHfhqKV_RDStS5IAa-9" value="" style="endArrow=classic;html=1;rounded=0;exitX=0.5;exitY=0;exitDx=0;exitDy=0;startArrow=classic;startFill=1;entryX=0.55;entryY=0.95;entryDx=0;entryDy=0;entryPerimeter=0;" edge="1" parent="1" source="VfzKHfhqKV_RDStS5IAa-1" target="VfzKHfhqKV_RDStS5IAa-10">
          <mxGeometry width="50" height="50" relative="1" as="geometry">
            <mxPoint x="540" y="518" as="sourcePoint" />
            <mxPoint x="535" y="308" as="targetPoint" />
          </mxGeometry>
        </mxCell>
        <mxCell id="VfzKHfhqKV_RDStS5IAa-10" value="&lt;div&gt;INTERNET&lt;/div&gt;" style="ellipse;shape=cloud;whiteSpace=wrap;html=1;" vertex="1" parent="1">
          <mxGeometry x="380" y="160" width="280" height="190" as="geometry" />
        </mxCell>
        <mxCell id="VfzKHfhqKV_RDStS5IAa-12" value="" style="rounded=1;whiteSpace=wrap;html=1;fillColor=none;" vertex="1" parent="1">
          <mxGeometry x="245" y="400" width="580" height="385" as="geometry" />
        </mxCell>
        <mxCell id="VfzKHfhqKV_RDStS5IAa-15" value="&lt;div&gt;AWS&lt;/div&gt;" style="text;strokeColor=none;fillColor=none;html=1;fontSize=24;fontStyle=1;verticalAlign=middle;align=center;" vertex="1" parent="1">
          <mxGeometry x="290" y="425" width="100" height="40" as="geometry" />
        </mxCell>
      </root>
    </mxGraphModel>
  </diagram>
</mxfile>
